# xmcd CD database file
#
# Track frame offsets:
#	150
#	24203
#	42495
#	66555
#
# Disc length: 1129 seconds
#
# Revision: 4
# Processed by: cddbd v1.5PL3 Copyright (c) Steve Scherf et al.
# Submitted via: CDex 1.50beta10
#
DISCID=31046704
DTITLE=UNDER17 - Extentions／おかしなオンナノコ
DYEAR=2003
DGENRE=JPop
TTITLE0=Extentions
TTITLE1=おかしなオンナノコ
TTITLE2=Extentions (INSTRUMENTAL)
TTITLE3=おかしなオンナノコ (INSTRUMENTAL)
EXTD=YEAR: 2003
EXTT0=
EXTT1=
EXTT2=
EXTT3=
PLAYORDER=
